<?xml version="1.0" standalone="no"?>
<svg xmlns:xlink="http://www.w3.org/1999/xlink" id="wave" style="transform:rotate(180deg); transition: 0.3s" viewBox="0 0 1440 350" version="1.1" xmlns="http://www.w3.org/2000/svg"><defs><linearGradient id="sw-gradient-0" x1="0" x2="0" y1="1" y2="0"><stop stop-color="rgba(36, 47, 66, 1)" offset="0%"/><stop stop-color="rgba(72.348, 81, 95.945, 1)" offset="100%"/></linearGradient></defs><path style="transform:translate(0, 0px); opacity:1" fill="url(#sw-gradient-0)" d="M0,175L40,163.3C80,152,160,128,240,105C320,82,400,58,480,81.7C560,105,640,175,720,180.8C800,187,880,128,960,116.7C1040,105,1120,140,1200,157.5C1280,175,1360,175,1440,192.5C1520,210,1600,245,1680,233.3C1760,222,1840,163,1920,140C2000,117,2080,128,2160,122.5C2240,117,2320,93,2400,81.7C2480,70,2560,70,2640,58.3C2720,47,2800,23,2880,40.8C2960,58,3040,117,3120,157.5C3200,198,3280,222,3360,227.5C3440,233,3520,222,3600,198.3C3680,175,3760,140,3840,128.3C3920,117,4000,128,4080,151.7C4160,175,4240,210,4320,221.7C4400,233,4480,222,4560,221.7C4640,222,4720,233,4800,198.3C4880,163,4960,82,5040,46.7C5120,12,5200,23,5280,35C5360,47,5440,58,5520,52.5C5600,47,5680,23,5720,11.7L5760,0L5760,350L5720,350C5680,350,5600,350,5520,350C5440,350,5360,350,5280,350C5200,350,5120,350,5040,350C4960,350,4880,350,4800,350C4720,350,4640,350,4560,350C4480,350,4400,350,4320,350C4240,350,4160,350,4080,350C4000,350,3920,350,3840,350C3760,350,3680,350,3600,350C3520,350,3440,350,3360,350C3280,350,3200,350,3120,350C3040,350,2960,350,2880,350C2800,350,2720,350,2640,350C2560,350,2480,350,2400,350C2320,350,2240,350,2160,350C2080,350,2000,350,1920,350C1840,350,1760,350,1680,350C1600,350,1520,350,1440,350C1360,350,1280,350,1200,350C1120,350,1040,350,960,350C880,350,800,350,720,350C640,350,560,350,480,350C400,350,320,350,240,350C160,350,80,350,40,350L0,350Z"/><defs><linearGradient id="sw-gradient-1" x1="0" x2="0" y1="1" y2="0"><stop stop-color="rgba(36, 47, 66, 1)" offset="0%"/><stop stop-color="rgba(79.809, 89.065, 105.052, 1)" offset="100%"/></linearGradient></defs><path style="transform:translate(0, 50px); opacity:0.9" fill="url(#sw-gradient-1)" d="M0,105L40,140C80,175,160,245,240,233.3C320,222,400,128,480,122.5C560,117,640,198,720,239.2C800,280,880,280,960,233.3C1040,187,1120,93,1200,64.2C1280,35,1360,70,1440,93.3C1520,117,1600,128,1680,163.3C1760,198,1840,257,1920,274.2C2000,292,2080,268,2160,215.8C2240,163,2320,82,2400,58.3C2480,35,2560,70,2640,105C2720,140,2800,175,2880,186.7C2960,198,3040,187,3120,204.2C3200,222,3280,268,3360,268.3C3440,268,3520,222,3600,180.8C3680,140,3760,105,3840,122.5C3920,140,4000,210,4080,239.2C4160,268,4240,257,4320,262.5C4400,268,4480,292,4560,268.3C4640,245,4720,175,4800,169.2C4880,163,4960,222,5040,250.8C5120,280,5200,280,5280,245C5360,210,5440,140,5520,140C5600,140,5680,210,5720,245L5760,280L5760,350L5720,350C5680,350,5600,350,5520,350C5440,350,5360,350,5280,350C5200,350,5120,350,5040,350C4960,350,4880,350,4800,350C4720,350,4640,350,4560,350C4480,350,4400,350,4320,350C4240,350,4160,350,4080,350C4000,350,3920,350,3840,350C3760,350,3680,350,3600,350C3520,350,3440,350,3360,350C3280,350,3200,350,3120,350C3040,350,2960,350,2880,350C2800,350,2720,350,2640,350C2560,350,2480,350,2400,350C2320,350,2240,350,2160,350C2080,350,2000,350,1920,350C1840,350,1760,350,1680,350C1600,350,1520,350,1440,350C1360,350,1280,350,1200,350C1120,350,1040,350,960,350C880,350,800,350,720,350C640,350,560,350,480,350C400,350,320,350,240,350C160,350,80,350,40,350L0,350Z"/><defs><linearGradient id="sw-gradient-2" x1="0" x2="0" y1="1" y2="0"><stop stop-color="rgba(36, 47, 66, 1)" offset="0%"/><stop stop-color="rgba(108.953, 112.532, 118.713, 1)" offset="100%"/></linearGradient></defs><path style="transform:translate(0, 100px); opacity:0.8" fill="url(#sw-gradient-2)" d="M0,35L40,40.8C80,47,160,58,240,75.8C320,93,400,117,480,151.7C560,187,640,233,720,221.7C800,210,880,140,960,134.2C1040,128,1120,187,1200,192.5C1280,198,1360,152,1440,116.7C1520,82,1600,58,1680,46.7C1760,35,1840,35,1920,70C2000,105,2080,175,2160,198.3C2240,222,2320,198,2400,198.3C2480,198,2560,222,2640,245C2720,268,2800,292,2880,268.3C2960,245,3040,175,3120,145.8C3200,117,3280,128,3360,163.3C3440,198,3520,257,3600,285.8C3680,315,3760,315,3840,268.3C3920,222,4000,128,4080,122.5C4160,117,4240,198,4320,233.3C4400,268,4480,257,4560,245C4640,233,4720,222,4800,233.3C4880,245,4960,280,5040,274.2C5120,268,5200,222,5280,175C5360,128,5440,82,5520,70C5600,58,5680,82,5720,93.3L5760,105L5760,350L5720,350C5680,350,5600,350,5520,350C5440,350,5360,350,5280,350C5200,350,5120,350,5040,350C4960,350,4880,350,4800,350C4720,350,4640,350,4560,350C4480,350,4400,350,4320,350C4240,350,4160,350,4080,350C4000,350,3920,350,3840,350C3760,350,3680,350,3600,350C3520,350,3440,350,3360,350C3280,350,3200,350,3120,350C3040,350,2960,350,2880,350C2800,350,2720,350,2640,350C2560,350,2480,350,2400,350C2320,350,2240,350,2160,350C2080,350,2000,350,1920,350C1840,350,1760,350,1680,350C1600,350,1520,350,1440,350C1360,350,1280,350,1200,350C1120,350,1040,350,960,350C880,350,800,350,720,350C640,350,560,350,480,350C400,350,320,350,240,350C160,350,80,350,40,350L0,350Z"/><defs><linearGradient id="sw-gradient-3" x1="0" x2="0" y1="1" y2="0"><stop stop-color="rgba(36, 47, 66, 1)" offset="0%"/><stop stop-color="rgba(87.697, 92.391, 100.499, 1)" offset="100%"/></linearGradient></defs><path style="transform:translate(0, 150px); opacity:0.7" fill="url(#sw-gradient-3)" d="M0,140L40,140C80,140,160,140,240,128.3C320,117,400,93,480,75.8C560,58,640,47,720,64.2C800,82,880,128,960,175C1040,222,1120,268,1200,274.2C1280,280,1360,245,1440,227.5C1520,210,1600,210,1680,180.8C1760,152,1840,93,1920,58.3C2000,23,2080,12,2160,40.8C2240,70,2320,140,2400,186.7C2480,233,2560,257,2640,262.5C2720,268,2800,257,2880,262.5C2960,268,3040,292,3120,303.3C3200,315,3280,315,3360,280C3440,245,3520,175,3600,175C3680,175,3760,245,3840,227.5C3920,210,4000,105,4080,58.3C4160,12,4240,23,4320,35C4400,47,4480,58,4560,93.3C4640,128,4720,187,4800,204.2C4880,222,4960,198,5040,192.5C5120,187,5200,198,5280,169.2C5360,140,5440,70,5520,35C5600,0,5680,0,5720,0L5760,0L5760,350L5720,350C5680,350,5600,350,5520,350C5440,350,5360,350,5280,350C5200,350,5120,350,5040,350C4960,350,4880,350,4800,350C4720,350,4640,350,4560,350C4480,350,4400,350,4320,350C4240,350,4160,350,4080,350C4000,350,3920,350,3840,350C3760,350,3680,350,3600,350C3520,350,3440,350,3360,350C3280,350,3200,350,3120,350C3040,350,2960,350,2880,350C2800,350,2720,350,2640,350C2560,350,2480,350,2400,350C2320,350,2240,350,2160,350C2080,350,2000,350,1920,350C1840,350,1760,350,1680,350C1600,350,1520,350,1440,350C1360,350,1280,350,1200,350C1120,350,1040,350,960,350C880,350,800,350,720,350C640,350,560,350,480,350C400,350,320,350,240,350C160,350,80,350,40,350L0,350Z"/></svg>