<?xml version="1.0" standalone="no"?>
<svg xmlns:xlink="http://www.w3.org/1999/xlink" id="wave" style="transform:rotate(0deg); transition: 0.3s" viewBox="0 0 1440 490" version="1.1" xmlns="http://www.w3.org/2000/svg"><defs><linearGradient id="sw-gradient-0" x1="0" x2="0" y1="1" y2="0"><stop stop-color="rgba(243, 106, 62, 1)" offset="0%"/><stop stop-color="rgba(255, 179, 11, 1)" offset="100%"/></linearGradient></defs><path style="transform:translate(0, 0px); opacity:1" fill="url(#sw-gradient-0)" d="M0,147L34.3,171.5C68.6,196,137,245,206,277.7C274.3,310,343,327,411,302.2C480,278,549,212,617,220.5C685.7,229,754,310,823,343C891.4,376,960,359,1029,343C1097.1,327,1166,310,1234,318.5C1302.9,327,1371,359,1440,318.5C1508.6,278,1577,163,1646,155.2C1714.3,147,1783,245,1851,302.2C1920,359,1989,376,2057,326.7C2125.7,278,2194,163,2263,138.8C2331.4,114,2400,180,2469,212.3C2537.1,245,2606,245,2674,220.5C2742.9,196,2811,147,2880,114.3C2948.6,82,3017,65,3086,81.7C3154.3,98,3223,147,3291,187.8C3360,229,3429,261,3497,261.3C3565.7,261,3634,229,3703,196C3771.4,163,3840,131,3909,147C3977.1,163,4046,229,4114,261.3C4182.9,294,4251,294,4320,245C4388.6,196,4457,98,4526,57.2C4594.3,16,4663,33,4731,40.8C4800,49,4869,49,4903,49L4937.1,49L4937.1,490L4902.9,490C4868.6,490,4800,490,4731,490C4662.9,490,4594,490,4526,490C4457.1,490,4389,490,4320,490C4251.4,490,4183,490,4114,490C4045.7,490,3977,490,3909,490C3840,490,3771,490,3703,490C3634.3,490,3566,490,3497,490C3428.6,490,3360,490,3291,490C3222.9,490,3154,490,3086,490C3017.1,490,2949,490,2880,490C2811.4,490,2743,490,2674,490C2605.7,490,2537,490,2469,490C2400,490,2331,490,2263,490C2194.3,490,2126,490,2057,490C1988.6,490,1920,490,1851,490C1782.9,490,1714,490,1646,490C1577.1,490,1509,490,1440,490C1371.4,490,1303,490,1234,490C1165.7,490,1097,490,1029,490C960,490,891,490,823,490C754.3,490,686,490,617,490C548.6,490,480,490,411,490C342.9,490,274,490,206,490C137.1,490,69,490,34,490L0,490Z"/><defs><linearGradient id="sw-gradient-1" x1="0" x2="0" y1="1" y2="0"><stop stop-color="rgba(243, 106, 62, 1)" offset="0%"/><stop stop-color="rgba(255, 179, 11, 1)" offset="100%"/></linearGradient></defs><path style="transform:translate(0, 50px); opacity:0.9" fill="url(#sw-gradient-1)" d="M0,98L34.3,138.8C68.6,180,137,261,206,302.2C274.3,343,343,343,411,285.8C480,229,549,114,617,65.3C685.7,16,754,33,823,65.3C891.4,98,960,147,1029,187.8C1097.1,229,1166,261,1234,269.5C1302.9,278,1371,261,1440,285.8C1508.6,310,1577,376,1646,392C1714.3,408,1783,376,1851,302.2C1920,229,1989,114,2057,73.5C2125.7,33,2194,65,2263,130.7C2331.4,196,2400,294,2469,294C2537.1,294,2606,196,2674,204.2C2742.9,212,2811,327,2880,334.8C2948.6,343,3017,245,3086,212.3C3154.3,180,3223,212,3291,236.8C3360,261,3429,278,3497,310.3C3565.7,343,3634,392,3703,408.3C3771.4,425,3840,408,3909,408.3C3977.1,408,4046,425,4114,416.5C4182.9,408,4251,376,4320,334.8C4388.6,294,4457,245,4526,253.2C4594.3,261,4663,327,4731,367.5C4800,408,4869,425,4903,432.8L4937.1,441L4937.1,490L4902.9,490C4868.6,490,4800,490,4731,490C4662.9,490,4594,490,4526,490C4457.1,490,4389,490,4320,490C4251.4,490,4183,490,4114,490C4045.7,490,3977,490,3909,490C3840,490,3771,490,3703,490C3634.3,490,3566,490,3497,490C3428.6,490,3360,490,3291,490C3222.9,490,3154,490,3086,490C3017.1,490,2949,490,2880,490C2811.4,490,2743,490,2674,490C2605.7,490,2537,490,2469,490C2400,490,2331,490,2263,490C2194.3,490,2126,490,2057,490C1988.6,490,1920,490,1851,490C1782.9,490,1714,490,1646,490C1577.1,490,1509,490,1440,490C1371.4,490,1303,490,1234,490C1165.7,490,1097,490,1029,490C960,490,891,490,823,490C754.3,490,686,490,617,490C548.6,490,480,490,411,490C342.9,490,274,490,206,490C137.1,490,69,490,34,490L0,490Z"/><defs><linearGradient id="sw-gradient-2" x1="0" x2="0" y1="1" y2="0"><stop stop-color="rgba(243, 106, 62, 1)" offset="0%"/><stop stop-color="rgba(255, 179, 11, 1)" offset="100%"/></linearGradient></defs><path style="transform:translate(0, 100px); opacity:0.8" fill="url(#sw-gradient-2)" d="M0,245L34.3,204.2C68.6,163,137,82,206,73.5C274.3,65,343,131,411,196C480,261,549,327,617,343C685.7,359,754,327,823,302.2C891.4,278,960,261,1029,220.5C1097.1,180,1166,114,1234,89.8C1302.9,65,1371,82,1440,81.7C1508.6,82,1577,65,1646,49C1714.3,33,1783,16,1851,40.8C1920,65,1989,131,2057,163.3C2125.7,196,2194,196,2263,228.7C2331.4,261,2400,327,2469,310.3C2537.1,294,2606,196,2674,163.3C2742.9,131,2811,163,2880,187.8C2948.6,212,3017,229,3086,204.2C3154.3,180,3223,114,3291,122.5C3360,131,3429,212,3497,245C3565.7,278,3634,261,3703,277.7C3771.4,294,3840,343,3909,334.8C3977.1,327,4046,261,4114,269.5C4182.9,278,4251,359,4320,351.2C4388.6,343,4457,245,4526,212.3C4594.3,180,4663,212,4731,204.2C4800,196,4869,147,4903,122.5L4937.1,98L4937.1,490L4902.9,490C4868.6,490,4800,490,4731,490C4662.9,490,4594,490,4526,490C4457.1,490,4389,490,4320,490C4251.4,490,4183,490,4114,490C4045.7,490,3977,490,3909,490C3840,490,3771,490,3703,490C3634.3,490,3566,490,3497,490C3428.6,490,3360,490,3291,490C3222.9,490,3154,490,3086,490C3017.1,490,2949,490,2880,490C2811.4,490,2743,490,2674,490C2605.7,490,2537,490,2469,490C2400,490,2331,490,2263,490C2194.3,490,2126,490,2057,490C1988.6,490,1920,490,1851,490C1782.9,490,1714,490,1646,490C1577.1,490,1509,490,1440,490C1371.4,490,1303,490,1234,490C1165.7,490,1097,490,1029,490C960,490,891,490,823,490C754.3,490,686,490,617,490C548.6,490,480,490,411,490C342.9,490,274,490,206,490C137.1,490,69,490,34,490L0,490Z"/></svg>